<svg xmlns="http://www.w3.org/2000/svg" width="44.512" height="40.635" viewBox="0 0 44.512 40.635">
  <g id="Sunrise" transform="translate(-84.245 -90.935)">
    <path id="Tracé_158" data-name="Tracé 158" d="M174.678,192.471h3.2l.729-.7a1.027,1.027,0,0,1,1.425,0l.729.7h3.2a.953.953,0,0,1,.973-1.007h3.808a10.943,10.943,0,0,0-7.295-16.369,10.991,10.991,0,0,0-11.585,16.37h3.847A.952.952,0,0,1,174.678,192.471Z" transform="translate(-72.817 -72.679)" fill="#f8b62d"/>
    <path id="Tracé_159" data-name="Tracé 159" d="M157.016,167.267a10.978,10.978,0,0,1,20.369,5.692,1.008,1.008,0,0,1,2.014,0,12.992,12.992,0,1,0-24.721,5.594h2.266A11.124,11.124,0,0,1,157.016,167.267Z" transform="translate(-59.905 -59.768)" fill="#fff"/>
    <path id="Tracé_160" data-name="Tracé 160" d="M331.77,250.4a1.008,1.008,0,0,0,2.014,0A1.008,1.008,0,0,0,331.77,250.4Z" transform="translate(-214.29 -137.214)" fill="#fff"/>
    <path id="Tracé_161" data-name="Tracé 161" d="M321.728,256.69a11.209,11.209,0,0,1-1.558,5.594h2.26a13.109,13.109,0,0,0,1.313-5.594A1.008,1.008,0,0,1,321.728,256.69Z" transform="translate(-204.247 -143.499)" fill="#fff"/>
    <path id="Tracé_162" data-name="Tracé 162" d="M244.514,96.427v-4.52a1.008,1.008,0,0,0-2.014,0v4.518A1.008,1.008,0,0,0,244.514,96.427Zm-1.007-4.52Z" transform="translate(-137.006)" fill="#fff"/>
    <path id="Tracé_163" data-name="Tracé 163" d="M167.271,116.4l-2.26-3.914a1.011,1.011,0,0,0-1.745,1.016l2.26,3.914A1.011,1.011,0,0,0,167.271,116.4Zm-.87.509-2.26-3.914Z" transform="translate(-68.289 -18.23)" fill="#fff"/>
    <path id="Tracé_164" data-name="Tracé 164" d="M105.789,171.8l3.914,2.26a1.011,1.011,0,0,0,1.016-1.746l-3.914-2.248A1,1,0,0,0,105.789,171.8Zm.509-.87,3.914,2.26Z" transform="translate(-18.228 -68.382)" fill="#fff"/>
    <path id="Tracé_165" data-name="Tracé 165" d="M85.218,251.2h4.518a1.008,1.008,0,0,0,0-2.014H85.218A1.008,1.008,0,0,0,85.218,251.2Zm0-1.007Z" transform="translate(0 -137.006)" fill="#fff"/>
    <path id="Tracé_166" data-name="Tracé 166" d="M373.106,249.19h-4.518a1.008,1.008,0,0,0,0,2.014h4.518A1.008,1.008,0,0,0,373.106,249.19Zm-4.518,1.007Z" transform="translate(-245.322 -137.006)" fill="#fff"/>
    <path id="Tracé_167" data-name="Tracé 167" d="M352.215,174.011l3.914-2.26a1.011,1.011,0,0,0-1.016-1.746l-3.914,2.26A1.011,1.011,0,0,0,352.215,174.011Zm3.405-3.129-3.914,2.26Z" transform="translate(-230.688 -68.332)" fill="#fff"/>
    <path id="Tracé_168" data-name="Tracé 168" d="M306.8,117.409l2.26-3.914a1.011,1.011,0,0,0-1.746-1.016l-2.246,3.914A1,1,0,0,0,306.8,117.409Zm1.39-4.422-2.26,3.914Z" transform="translate(-191.044 -18.228)" fill="#fff"/>
    <path id="Tracé_169" data-name="Tracé 169" d="M301.034,298.35H285.523a1.008,1.008,0,0,0,0,2.014h15.511A1.008,1.008,0,0,0,301.034,298.35Z" transform="translate(-173.41 -179.565)" fill="#fff"/>
    <path id="Tracé_170" data-name="Tracé 170" d="M97,300.364h4.917a1.008,1.008,0,0,0,0-2.014H86.408a1.008,1.008,0,0,0,0,2.014H97Z" transform="translate(-1.03 -179.565)" fill="#fff"/>
    <path id="Tracé_171" data-name="Tracé 171" d="M152.186,303.876H141.4l-1.17-1.118-3.406-3.26-.729-.7a1.027,1.027,0,0,0-1.425,0l-.729.7-3.381,3.235-1.2,1.143H118.578a1.008,1.008,0,0,0,0,2.014h8.29c.959,0,1.944.066,2.9,0a2.075,2.075,0,0,0,1.238-.795l.134-.126.078-.079,1.439-1.378.238-.227,2.485-2.375c.893.873,1.779,1.762,2.685,2.633.47.454.94.9,1.427,1.343.093.085.187.166.279.25.166.149.332.3.5.443.671.585,2.132.314,2.954.314H152.2A1.009,1.009,0,0,0,152.186,303.876Z" transform="translate(-28.881 -179.705)" fill="#fff"/>
    <path id="Tracé_172" data-name="Tracé 172" d="M173.142,378.57H147.228a1.008,1.008,0,0,0,0,2.014h25.914A1.008,1.008,0,0,0,173.142,378.57Z" transform="translate(-53.684 -249.014)" fill="#fff"/>
  </g>
</svg>
