<svg xmlns="http://www.w3.org/2000/svg" width="43.693" height="39.887" viewBox="0 0 43.693 39.887">
  <g id="Sunset" transform="translate(-84.245 -90.935)">
    <path id="Tracé_122" data-name="Tracé 122" d="M188.373,191.158a10.742,10.742,0,0,0-7.161-16.068,10.789,10.789,0,0,0-11.372,16.069h18.532Z" transform="translate(-73.034 -72.886)" fill="#f8b62d"/>
    <path id="Tracé_123" data-name="Tracé 123" d="M321.7,256.69a11,11,0,0,1-1.529,5.491h2.218a12.868,12.868,0,0,0,1.289-5.491A.99.99,0,0,1,321.7,256.69Z" transform="translate(-204.83 -143.909)" fill="#fff"/>
    <path id="Tracé_124" data-name="Tracé 124" d="M156.95,167.133a10.776,10.776,0,0,1,19.994,5.587.989.989,0,0,1,1.977,0,12.753,12.753,0,1,0-24.265,5.491h2.225A10.92,10.92,0,0,1,156.95,167.133Z" transform="translate(-60.076 -59.939)" fill="#fefefe"/>
    <path id="Tracé_125" data-name="Tracé 125" d="M331.77,250.387a.989.989,0,0,0,1.977,0A.989.989,0,0,0,331.77,250.387Z" transform="translate(-214.902 -137.606)" fill="#fff"/>
    <path id="Tracé_126" data-name="Tracé 126" d="M242.5,91.89v4.435a.989.989,0,0,0,1.977,0V91.89A.989.989,0,0,0,242.5,91.89Zm.988,4.435Z" transform="translate(-137.397)" fill="#fff"/>
    <path id="Tracé_127" data-name="Tracé 127" d="M163.347,113.474l2.218,3.842a.992.992,0,0,0,1.713-1l-2.218-3.842A.992.992,0,0,0,163.347,113.474Zm.854-.5,2.218,3.842Z" transform="translate(-68.554 -18.286)" fill="#fff"/>
    <path id="Tracé_128" data-name="Tracé 128" d="M106.778,170.076a.992.992,0,0,0-1,1.713l3.842,2.218a.992.992,0,0,0,1-1.713Zm-.5.854,3.842,2.218Z" transform="translate(-18.28 -68.589)" fill="#fff"/>
    <path id="Tracé_129" data-name="Tracé 129" d="M85.2,251.167h4.435a.989.989,0,0,0,0-1.977H85.2A.989.989,0,0,0,85.2,251.167Zm4.435-.988Z" transform="translate(0 -137.397)" fill="#fff"/>
    <path id="Tracé_130" data-name="Tracé 130" d="M373,249.19H368.57a.989.989,0,0,0,0,1.977H373A.989.989,0,0,0,373,249.19Zm-4.435.988Z" transform="translate(-246.022 -137.397)" fill="#fff"/>
    <path id="Tracé_131" data-name="Tracé 131" d="M355.024,170.063l-3.842,2.218a.992.992,0,0,0,1,1.713l3.842-2.218A.992.992,0,0,0,355.024,170.063Zm-3.342,3.071,3.842-2.218Z" transform="translate(-231.339 -68.576)" fill="#fff"/>
    <path id="Tracé_132" data-name="Tracé 132" d="M307.288,112.474l-2.212,3.842a.992.992,0,0,0,1.713,1l2.218-3.842A1,1,0,0,0,307.288,112.474Zm-1.364,4.34,2.218-3.842Z" transform="translate(-191.604 -18.284)" fill="#fff"/>
    <path id="Tracé_133" data-name="Tracé 133" d="M342.8,298.35h-9.268q-.244.506-.527.988h5.232v.988H342.8A.989.989,0,0,0,342.8,298.35Z" transform="translate(-215.969 -180.078)" fill="#fff"/>
    <path id="Tracé_134" data-name="Tracé 134" d="M86.39,299.339h9.753q-.287-.485-.527-.988H86.39a.989.989,0,0,0,0,1.977h4.563v-.988Z" transform="translate(-1.033 -180.078)" fill="#fff"/>
    <path id="Tracé_135" data-name="Tracé 135" d="M198.084,298.35H179.55a10.161,10.161,0,0,0,.659.988h17.213A11.028,11.028,0,0,0,198.084,298.35Z" transform="translate(-82.744 -180.078)" fill="#fff"/>
    <path id="Tracé_136" data-name="Tracé 136" d="M165.55,299.339a10.158,10.158,0,0,1-.659-.988H162.66q.239.5.527.988Z" transform="translate(-68.08 -180.078)" fill="#fff"/>
    <path id="Tracé_137" data-name="Tracé 137" d="M315.18,299.339h2.349q.286-.482.527-.988h-2.218A11.025,11.025,0,0,1,315.18,299.339Z" transform="translate(-200.498 -180.078)" fill="#fff"/>
    <path id="Tracé_138" data-name="Tracé 138" d="M132.548,305.957l-.062-.107H127.3v.988h5.836C132.928,306.555,132.733,306.265,132.548,305.957Z" transform="translate(-37.38 -186.589)" fill="#fff"/>
    <path id="Tracé_139" data-name="Tracé 139" d="M185.447,306.839H200.97a10.9,10.9,0,0,0,.832-.988H184.59q.121.159.249.314Q185.129,306.517,185.447,306.839Z" transform="translate(-87.12 -186.589)" fill="#fff"/>
    <path id="Tracé_140" data-name="Tracé 140" d="M328.737,305.85q-.3.509-.647.988h5.88v-.988Z" transform="translate(-211.707 -186.589)" fill="#fff"/>
    <path id="Tracé_141" data-name="Tracé 141" d="M308.87,306.839h2.521q.345-.48.647-.988H309.7a10.893,10.893,0,0,1-.832.988Z" transform="translate(-195.02 -186.589)" fill="#fff"/>
    <path id="Tracé_142" data-name="Tracé 142" d="M169.262,306.164q-.132-.154-.249-.314H166.65l.062.107q.277.457.588.882h2.571Q169.555,306.516,169.262,306.164Z" transform="translate(-71.544 -186.589)" fill="#fff"/>
    <path id="Tracé_143" data-name="Tracé 143" d="M373.023,339.489H372.7v.988h.323a.989.989,0,0,0,0-1.977H372.7v.989Z" transform="translate(-250.437 -214.936)" fill="#fff"/>
    <path id="Tracé_144" data-name="Tracé 144" d="M118.56,339.489h.323V338.5h-.323a.989.989,0,0,0,0,1.977h.323v-.988Z" transform="translate(-28.963 -214.936)" fill="#fff"/>
    <path id="Tracé_145" data-name="Tracé 145" d="M202.89,351.26l.3.29h.4Z" transform="translate(-103.008 -226.015)" fill="#fff"/>
    <path id="Tracé_146" data-name="Tracé 146" d="M289.3,338.27a12.37,12.37,0,0,1-1.914,1.019h11.244V338.3h-7.814C290.319,338.3,289.811,338.277,289.3,338.27Z" transform="translate(-176.371 -214.737)" fill="#fff"/>
    <path id="Tracé_147" data-name="Tracé 147" d="M291.8,351.55h.4l.3-.29Z" transform="translate(-180.2 -226.014)" fill="#fff"/>
    <path id="Tracé_148" data-name="Tracé 148" d="M148.981,346l-5.509,5.272L137.963,346H127.3v.988h10.266l-.3-.29.7.29h-.4l5.207,4.983a1.008,1.008,0,0,0,1.4,0l5.207-4.983h-.4l.7-.29-.3.29h10.264V346Z" transform="translate(-37.38 -221.448)" fill="#fff"/>
    <path id="Tracé_149" data-name="Tracé 149" d="M137.963,339.219h.673a12.967,12.967,0,0,1-2-1.029c-.314.018-.609.041-.847.041H127.3v.989Z" transform="translate(-37.38 -214.667)" fill="#fff"/>
    <path id="Tracé_150" data-name="Tracé 150" d="M282.423,338.284c-.571.04-.953.527-1.34.9l-.083.09h.847a12.375,12.375,0,0,0,1.914-1.014C283.31,338.252,282.864,338.254,282.423,338.284Z" transform="translate(-170.823 -214.726)" fill="#fff"/>
    <path id="Tracé_151" data-name="Tracé 151" d="M200.158,338.346A3.02,3.02,0,0,0,198.11,338a12.964,12.964,0,0,0,2,1.029h.809Q200.543,338.683,200.158,338.346Z" transform="translate(-98.858 -214.481)" fill="#fff"/>
    <path id="Tracé_152" data-name="Tracé 152" d="M246.1,376.232q-.349-.333-.695-.672l-.7.672Z" transform="translate(-139.307 -247.112)" fill="#fff"/>
    <path id="Tracé_153" data-name="Tracé 153" d="M216.143,347.535l-2.434,2.325q.347.339.695.672h-1.393l.7-.672c-1.176-1.148-2.337-2.325-3.539-3.447a13.015,13.015,0,0,1-1.3-.453H208.2l5.509,5.277,5.509-5.272h-.581a12.167,12.167,0,0,1-1.35.481Z" transform="translate(-107.618 -221.413)" fill="#fff"/>
    <path id="Tracé_154" data-name="Tracé 154" d="M277.15,346.474A12.16,12.16,0,0,0,278.5,346h-.842Z" transform="translate(-167.48 -221.448)" fill="#fff"/>
    <path id="Tracé_155" data-name="Tracé 155" d="M214.119,346h-.809a13.016,13.016,0,0,0,1.3.453Q214.366,346.22,214.119,346Z" transform="translate(-112.054 -221.448)" fill="#fff"/>
    <path id="Tracé_156" data-name="Tracé 156" d="M285.51,378.57a.989.989,0,0,0,0,1.977h7.209a.989.989,0,0,0,0-1.977Zm0,.988Z" transform="translate(-173.909 -249.725)" fill="#fff"/>
    <path id="Tracé_157" data-name="Tracé 157" d="M154.419,378.57H147.21a.989.989,0,0,0,0,1.977h7.209A.989.989,0,0,0,154.419,378.57Zm-7.209.988Z" transform="translate(-53.837 -249.725)" fill="#fff"/>
  </g>
</svg>
